# xmcd
#
# Track frame offsets: 
#        150
#        26583
#        36569
#        53053
#        72849
#        88015
#        106459
#        123954
#        138277
#        153131
#        174517
#        195214
#        211213
#        230111
#        249727
#
# Disc length: 3552 seconds
#
# Revision: 0
# Processed by: cddbd v1.5.2PL0 Copyright (c) Steve Scherf et al.
# Submitted via: ExactAudioCopyFreeDBPlugin 1.0
#
DISCID=ca0dde0f
DTITLE=Miscellaneous - Sampler Rock Hard 127
DYEAR=1900
DGENRE=Metal
TTITLE0=Helloween - Nabatea
TTITLE1=Hatebreed - Put It to the Torch
TTITLE2=Paradise Lost - The Last Fallen Saviour
TTITLE3=Motörhead - Iron Fist (live)
TTITLE4=Dropkick Murphys - The Boys Are Back
TTITLE5=Blood of the Sun - Let It Roll
TTITLE6=Koritni - Party's Over (live)
TTITLE7=King Lizard - Hair of the Dog
TTITLE8=Handful of Dust - You Can Bet
TTITLE9=Y and T - Black Tiger (live)
TTITLE10=Nightfall - Oberon and Titania
TTITLE11=Trucker Diablo - Voodoo
TTITLE12=Last Barons - Nomad Soul
TTITLE13=Grand Supreme Blood Court - Piled up for the Scavengers
TTITLE14=A Call to Sincerity - The Means to an End
EXTD=
EXTT0=
EXTT1=
EXTT2=
EXTT3=
EXTT4=
EXTT5=
EXTT6=
EXTT7=
EXTT8=
EXTT9=
EXTT10=
EXTT11=
EXTT12=
EXTT13=
EXTT14=
PLAYORDER=
